<svg width="80" height="38" viewBox="0 0 80 38" fill="none" xmlns="http://www.w3.org/2000/svg">
<path d="M19 7H68C74.6274 7 80 12.3726 80 19V19C80 25.6274 74.6274 31 68 31H19V7Z" fill="#34343D"/>
<mask id="mask0" mask-type="alpha" maskUnits="userSpaceOnUse" x="19" y="7" width="61" height="24">
<path d="M19 7H68C74.6274 7 80 12.3726 80 19V19C80 25.6274 74.6274 31 68 31H19V7Z" fill="#34343D"/>
</mask>
<g mask="url(#mask0)">
<g filter="url(#filter0_d)">
<path fill-rule="evenodd" clip-rule="evenodd" d="M25.0457 7.08997H17V31.09H20.3377C23.0659 28.6672 25.8424 25.2708 27.207 20.7857C28.6841 15.9309 27.7464 10.8793 25.0457 7.08997Z" fill="#34343D"/>
</g>
</g>
<path d="M37.7031 24C39.8154 24 41.1211 22.9199 41.1211 21.1904C41.1211 19.9121 40.1846 18.9209 38.8721 18.8252V18.709C39.8975 18.5518 40.6494 17.6562 40.6494 16.5898C40.6494 15.0518 39.5078 14.1357 37.6143 14.1357H33.9844V24H37.7031ZM35.8848 15.6328H37.0879C38.127 15.6328 38.6943 16.0908 38.6943 16.9385C38.6943 17.7314 38.0791 18.1963 37.0059 18.1963H35.8848V15.6328ZM35.8848 22.4756V19.6182H37.0879C38.4209 19.6182 39.0977 20.083 39.0977 21.0195C39.0977 22.0176 38.4551 22.4756 37.1016 22.4756H35.8848ZM49.2285 22.3252H44.9561V19.7891H48.9756V18.2373H44.9561V15.8105H49.2285V14.1357H43.0078V24H49.2285V22.3252ZM55.6064 24V15.8105H58.4297V14.1357H50.8418V15.8105H53.665V24H55.6064ZM62.1416 20.0693L63.1807 16.0703H63.2695L64.2949 20.0693H62.1416ZM65.2998 24H67.3984L64.4385 14.1357H62.1416L59.1816 24H61.123L61.752 21.5869H64.6846L65.2998 24Z" fill="white"/>
<path d="M17.2064 2.58413L16.1182 2.24981L15.9269 3.37206L10.6812 34.156L10.3801 35.9228L12.0417 35.2511L11.667 34.324C12.0417 35.2511 12.0421 35.251 12.0425 35.2508L12.0435 35.2504L12.0462 35.2493L12.0546 35.2459L12.0826 35.2343C12.1064 35.2244 12.14 35.2102 12.183 35.1917C12.2689 35.1546 12.3922 35.1003 12.5485 35.0282C12.861 34.8842 13.3056 34.6694 13.8463 34.3811C14.9264 33.8052 16.3964 32.9329 17.964 31.7427C21.0876 29.371 24.6712 25.6811 26.2499 20.492C28.5624 12.8914 24.5665 4.84528 17.2064 2.58413Z" stroke="#0C0C0F" stroke-width="2"/>
<path fill-rule="evenodd" clip-rule="evenodd" d="M0.78589 12.5556C2.95047 5.44118 10.2123 1.36535 17.0067 3.4527C23.7996 5.5396 27.5518 12.9991 25.3872 20.1136C22.3984 29.9369 11.7609 34.2367 11.7609 34.2367C9.1115 35.7181 5.73509 34.644 4.29634 31.9734C4.29634 31.9734 -2.20289 22.379 0.78589 12.5556ZM16.4724 9.77H11.6669C11.2967 9.77 10.8682 10.0558 10.7253 10.4083L7.15528 19.2158C6.87345 19.9111 7.25836 20.4873 8.02129 20.4873H10.527L8.96406 26.2103C8.56822 27.6597 9.10283 27.9792 10.1664 26.8936L18.4879 18.4001C19.0175 17.8595 18.8321 17.4252 18.0785 17.4252H13.9232L17.2142 10.9999C17.5622 10.3205 17.23 9.77 16.4724 9.77Z" fill="white"/>
<defs>
<filter id="filter0_d" x="15" y="1.08997" width="22.9045" height="36" filterUnits="userSpaceOnUse" color-interpolation-filters="sRGB">
<feFlood flood-opacity="0" result="BackgroundImageFix"/>
<feColorMatrix in="SourceAlpha" type="matrix" values="0 0 0 0 0 0 0 0 0 0 0 0 0 0 0 0 0 0 127 0"/>
<feOffset dx="4"/>
<feGaussianBlur stdDeviation="3"/>
<feColorMatrix type="matrix" values="0 0 0 0 0 0 0 0 0 0 0 0 0 0 0 0 0 0 0.4 0"/>
<feBlend mode="normal" in2="BackgroundImageFix" result="effect1_dropShadow"/>
<feBlend mode="normal" in="SourceGraphic" in2="effect1_dropShadow" result="shape"/>
</filter>
</defs>
</svg>
