<svg width="32" height="18" viewBox="0 0 32 18" fill="none" xmlns="http://www.w3.org/2000/svg">
<path d="M9.08294 18C14.0993 18 18.1659 13.9706 18.1659 9C18.1659 4.02944 14.0993 0 9.08294 0C4.06657 0 0 4.02944 0 9C0 13.9706 4.06657 18 9.08294 18Z" fill="#231F20"/>
<path d="M23.5264 17.4232C25.9785 17.4232 27.9663 13.652 27.9663 8.99993C27.9663 4.34789 25.9785 0.57666 23.5264 0.57666C21.0743 0.57666 19.0865 4.34789 19.0865 8.99993C19.0865 13.652 21.0743 17.4232 23.5264 17.4232Z" fill="#231F20"/>
<path d="M30.376 16.5651C31.2731 16.5651 32.0004 13.1782 32.0004 9.0003C32.0004 4.8224 31.2731 1.43555 30.376 1.43555C29.4789 1.43555 28.7516 4.8224 28.7516 9.0003C28.7516 13.1782 29.4789 16.5651 30.376 16.5651Z" fill="#231F20"/>
</svg>
